<svg width="99" height="143" viewBox="0 0 99 143" fill="none" xmlns="http://www.w3.org/2000/svg">
<path d="M23.3044 69.0403C30.963 73.7409 35.4192 82.2691 34.905 91.2405L34.0378 106.369C33.5093 115.587 40.842 123.353 50.0749 123.353C58.7805 123.353 65.7531 116.136 65.4538 107.436L64.8669 90.3899C64.5731 81.8503 68.7168 73.7656 75.821 69.0178L86.0895 62.1555V111.222C86.0895 128.187 72.3369 141.94 55.3717 141.941H42.6598C25.6947 141.94 11.9421 128.187 11.9421 111.222V62.0657L23.3044 69.0403Z" stroke="white" stroke-width="2.11852"/>
<path d="M93.3719 47.9786C94.3735 48.581 94.4045 50.0246 93.4293 50.6695L50.6984 78.9283C50.1733 79.2753 49.4933 79.2793 48.9646 78.9379L5.08418 50.6041C4.10409 49.971 4.11718 48.5308 5.10882 47.9156L47.6856 21.5034C48.1909 21.19 48.8292 21.185 49.3387 21.4914L93.3719 47.9786Z" fill="white"/>
<path d="M93.3719 47.9786C94.3735 48.581 94.4045 50.0246 93.4293 50.6695L50.6984 78.9283C50.1733 79.2753 49.4933 79.2793 48.9646 78.9379L5.08418 50.6041C4.10409 49.971 4.11718 48.5308 5.10882 47.9156L47.6856 21.5034C48.1909 21.19 48.8292 21.185 49.3387 21.4914L93.3719 47.9786Z" stroke="white" stroke-width="3.17778"/>
<path d="M93.3719 47.9786C94.3735 48.581 94.4045 50.0246 93.4293 50.6695L50.6984 78.9283C50.1733 79.2753 49.4933 79.2793 48.9646 78.9379L5.08418 50.6041C4.10409 49.971 4.11718 48.5308 5.10882 47.9156L47.6856 21.5034C48.1909 21.19 48.8292 21.185 49.3387 21.4914L93.3719 47.9786Z" stroke="white" stroke-width="3.17778"/>
<path d="M5.5862 49.5542H7.70471V83.5345H6.64546H5.5862V49.5542Z" fill="white"/>
<path d="M8.76385 83.5345C8.76385 84.7075 7.62035 85.6583 6.64533 85.6583C5.67031 85.6583 4.52681 84.7075 4.52681 83.5345C4.52681 82.3616 5.67031 81.4108 6.64533 81.4108C7.62035 81.4108 8.76385 82.3616 8.76385 83.5345Z" fill="white"/>
<path d="M6.64533 82.4726L8.76385 88.8439H4.52681L6.64533 82.4726Z" fill="white"/>
</svg>
