<svg xmlns="http://www.w3.org/2000/svg" width="24" height="24" viewBox="0 0 24 24" fill="none">
  <g transform="translate(1.5 1.5)">
    <path fill="none" stroke="currentColor" stroke-width="1.5" stroke-linejoin="round" d="M0.750168 17.9082V13.2572C0.750168 12.5472 0.750168 12.1932 0.881168 12.1532C1.01317 12.1132 1.21417 12.4192 1.61617 13.0302C3.00817 15.1442 5.35617 17.4922 7.47017 18.8842C8.08017 19.2862 8.38617 19.4872 8.34717 19.6192C8.30717 19.7492 7.95317 19.7492 7.24317 19.7492H2.59217C1.72417 19.7492 1.28917 19.7492 1.02017 19.4802C0.750168 19.2102 0.750168 18.7762 0.750168 17.9082ZM19.7502 2.59224V7.24324C19.7502 7.95324 19.7502 8.30724 19.6202 8.34724C19.4882 8.38624 19.2872 8.08124 18.8842 7.47024C17.4922 5.35624 15.1442 3.00824 13.0302 1.61624C12.4202 1.21424 12.1142 1.01324 12.1542 0.881244C12.1942 0.750244 12.5482 0.750244 13.2572 0.750244H17.9092C18.7772 0.750244 19.2112 0.750244 19.4812 1.02024C19.7512 1.29024 19.7502 1.72424 19.7502 2.59224ZM0.750168 2.65024V4.87624C0.750168 5.65324 0.750168 6.04124 0.895168 6.39024C1.03917 6.74024 1.31417 7.01424 1.86317 7.56324L12.9372 18.6372C13.4872 19.1872 13.7612 19.4612 14.1102 19.6052C14.4592 19.7492 14.8472 19.7502 15.6242 19.7502H17.8502C18.7462 19.7502 19.1932 19.7502 19.4722 19.4722C19.7502 19.1932 19.7502 18.7462 19.7502 17.8502V15.6242C19.7502 14.8472 19.7502 14.4592 19.6052 14.1102C19.4612 13.7602 19.1862 13.4862 18.6372 12.9372L7.56317 1.86324C7.01317 1.31324 6.73917 1.03924 6.39017 0.895244C6.04117 0.751244 5.65317 0.750244 4.87617 0.750244H2.65017C1.75417 0.750244 1.30617 0.750244 1.02817 1.02824C0.750168 1.30724 0.750168 1.75424 0.750168 2.65024Z"></path>
  </g>
</svg>